<svg width="4" height="8" viewBox="0 0 4 8" fill="none" xmlns="http://www.w3.org/2000/svg">
<path d="M4 3.98837C4.00029 4.05821 3.98826 4.1274 3.96462 4.1919C3.94099 4.2564 3.90622 4.3149 3.86235 4.36397L0.734043 7.90729C0.64276 7.97796 0.532377 8.00985 0.422362 7.99734C0.312346 7.98483 0.209765 7.92871 0.132711 7.83889C0.0556575 7.74908 0.00908064 7.63132 0.00119534 7.50641C-0.00668996 7.38149 0.0246231 7.25743 0.0896115 7.1561L2.86755 3.98837L0.0896113 0.820645C0.0324316 0.720754 0.00651605 0.60201 0.0160183 0.483448C0.0255205 0.364886 0.0698904 0.25337 0.142016 0.166774C0.214142 0.0801784 0.309847 0.0235168 0.413792 0.00587154C0.517737 -0.0117737 0.623903 0.0106179 0.715273 0.0694595L3.84358 3.61278C3.89086 3.66003 3.92911 3.71771 3.95601 3.78229C3.98291 3.84688 3.99787 3.91701 4 3.98837V3.98837Z" fill="#505258" fill-opacity="0.3"/>
</svg>
