<svg width="4" height="8" viewBox="0 0 4 8" fill="none" xmlns="http://www.w3.org/2000/svg">
<path d="M4.92895e-06 3.98837C-0.000286178 4.05821 0.0117393 4.1274 0.0353759 4.1919C0.0590126 4.2564 0.0937844 4.3149 0.137651 4.36397L3.26596 7.90729C3.35724 7.97796 3.46762 8.00985 3.57764 7.99734C3.68765 7.98483 3.79023 7.92871 3.86729 7.83889C3.94434 7.74908 3.99092 7.63132 3.9988 7.50641C4.00669 7.38149 3.97538 7.25743 3.91039 7.1561L1.13245 3.98837L3.91039 0.820645C3.96757 0.720754 3.99348 0.60201 3.98398 0.483448C3.97448 0.364886 3.93011 0.25337 3.85798 0.166774C3.78586 0.0801784 3.69015 0.0235168 3.58621 0.00587154C3.48226 -0.0117737 3.3761 0.0106179 3.28473 0.0694595L0.15642 3.61278C0.109145 3.66003 0.0708866 3.71771 0.0439902 3.78229C0.0170938 3.84688 0.00212605 3.91701 4.92895e-06 3.98837V3.98837Z" fill="#505258" fill-opacity="0.3"/>
</svg>
